<svg xmlns="http://www.w3.org/2000/svg" viewBox="0 0 32 32" width="32" height="32">
  <!-- Background circle -->
  <circle cx="16" cy="16" r="15" fill="#2496ED" stroke="#1e40af" stroke-width="1"/>
  
  <!-- Brain/AI symbol -->
  <path d="M8 12c0-2 1.5-4 4-4s4 2 4 4v2c2 0 3 1 3 3v4c0 2-1 3-3 3H11c-2 0-3-1-3-3v-4c0-2 1-3 3-3v-2z" fill="#ffffff" opacity="0.9"/>
  
  <!-- Log lines -->
  <rect x="10" y="14" width="8" height="1" fill="#60a5fa" rx="0.5"/>
  <rect x="10" y="16" width="6" height="1" fill="#60a5fa" rx="0.5"/>
  <rect x="10" y="18" width="7" height="1" fill="#60a5fa" rx="0.5"/>
  
  <!-- AI dot -->
  <circle cx="20" cy="12" r="2" fill="#fbbf24"/>
</svg> 